<?xml version="1.0" encoding="utf-8"?>
<!-- Generator: Adobe Illustrator 17.0.0, SVG Export Plug-In . SVG Version: 6.00 Build 0)  -->
<!DOCTYPE svg PUBLIC "-//W3C//DTD SVG 1.1//EN" "http://www.w3.org/Graphics/SVG/1.1/DTD/svg11.dtd">
<svg version="1.1" id="Calque_1" xmlns="http://www.w3.org/2000/svg" xmlns:xlink="http://www.w3.org/1999/xlink" x="0px" y="0px"
	 width="200px" height="250px" viewBox="0 0 200 250" style="enable-background:new 0 0 200 250;" xml:space="preserve">
<path d="M156.4,155c0.1-8.5,0.1-18.4,0.1-30c0-68.1-1-78.4-4.7-89.6C144.2,12.2,126.3,0,100,0C73.7,0,55.8,12.2,48.2,35.4
	c-2.6,7.9-3.9,15.2-4.4,41.7L9.1,53L0.6,65.3l43,29.7c-0.1,8.5-0.1,18.4-0.1,30c0,68.1,1,78.3,4.7,89.6C55.8,237.8,73.7,250,100,250
	c26.3,0,44.2-12.2,51.8-35.3c2.6-7.8,3.9-15.2,4.4-41.7l34.7,24l8.5-12.3L156.4,155z M125.7,206.2c-3.8,11.6-12.4,17.5-25.7,17.5
	c-13.1,0-21.5-5.7-25.6-17.5c-2.2-7.2-3.2-13.9-3.2-81.2c0-3.8,0-7.4,0-10.9l58,40.1C128.8,193.8,127.5,200,125.7,206.2z
	 M129.2,136.1L71.2,96c0.3-40.7,1.3-46.2,3.1-52.1C78.4,32,86.8,26.3,100,26.3c13.5,0,21.9,5.7,25.6,17.4c2.3,7.6,3.6,15.1,3.6,81.3
	C129.2,128.9,129.2,132.6,129.2,136.1z"/>
</svg>
